<svg width="36" height="36" viewBox="0 0 36 36" fill="none" xmlns="http://www.w3.org/2000/svg">
<rect width="128" height="128" transform="translate(-86 -23)" fill="white"/>
<path d="M31.0872 13.2934C31.5414 12.4563 31.8264 11.5379 31.9257 10.5906C32.0251 9.64331 31.9369 8.68575 31.6661 7.77257C31.3954 6.85938 30.9475 6.00847 30.3479 5.2684C29.7483 4.52833 29.0088 3.9136 28.1717 3.45932C27.3345 3.00504 26.4161 2.72009 25.4688 2.62075C24.5215 2.52141 23.564 2.60962 22.6508 2.88035C21.7376 3.15108 20.8867 3.59902 20.1466 4.1986C19.4066 4.79818 18.7918 5.53765 18.3376 6.37481L24.7124 9.83413L31.0872 13.2934Z" fill="black"/>
<path d="M11.4182 19.1246C10.9639 19.9617 10.679 20.8802 10.5796 21.8274C10.4803 22.7747 10.5685 23.7323 10.8392 24.6455C11.11 25.5586 11.5579 26.4096 12.1575 27.1496C12.7571 27.8897 13.4965 28.5044 14.3337 28.9587C15.1708 29.413 16.0893 29.6979 17.0365 29.7973C17.9838 29.8966 18.9414 29.8084 19.8546 29.5377C20.7678 29.267 21.6187 28.819 22.3587 28.2194C23.0988 27.6199 23.7135 26.8804 24.1678 26.0432L17.793 22.5839L11.4182 19.1246Z" fill="black"/>
<rect x="18.3374" y="6.37494" width="14.5059" height="14.5059" transform="rotate(28.4867 18.3374 6.37494)" fill="black"/>
<path d="M19.8917 15.4231C20.2937 14.6975 20.5459 13.9015 20.6338 13.0805C20.7217 12.2595 20.6437 11.4296 20.4042 10.6381C20.1646 9.84664 19.7683 9.10915 19.2377 8.46773C18.7072 7.82632 18.0528 7.29355 17.3121 6.89983C16.5713 6.50611 15.7586 6.25917 14.9203 6.17309C14.0821 6.08701 13.2348 6.16349 12.4267 6.39815C11.6186 6.63281 10.8657 7.02107 10.2108 7.54075C9.55587 8.06043 9.01189 8.70136 8.60988 9.42694L14.2508 12.425L19.8917 15.4231Z" fill="white"/>
<path d="M2.48743 20.4787C2.08542 21.2042 1.83326 22.0003 1.74533 22.8213C1.6574 23.6423 1.73544 24.4722 1.97498 25.2637C2.21453 26.0552 2.61089 26.7926 3.14143 27.4341C3.67198 28.0755 4.32632 28.6082 5.06709 29.002C5.80787 29.3957 6.62057 29.6426 7.4588 29.7287C8.29703 29.8148 9.14437 29.7383 9.95244 29.5036C10.7605 29.269 11.5135 28.8807 12.1684 28.361C12.8233 27.8414 13.3673 27.2004 13.7693 26.4749L8.12835 23.4768L2.48743 20.4787Z" fill="white"/>
<rect width="12.7763" height="12.6332" transform="matrix(0.883027 0.469321 -0.484639 0.874714 8.61011 9.42725)" fill="white"/>
<circle cx="27.6078" cy="7.97551" r="1.16393" fill="white"/>
<path d="M31.3904 7.39355L33.4273 8.84847L31.3904 10.3034L29.3535 8.84847L31.3904 7.39355Z" fill="#090814"/>
<rect x="10.282" y="24.7387" width="5.81965" height="1.74589" transform="rotate(-60 10.282 24.7387)" fill="black"/>
<path d="M5.74589 22.1199C5.28285 22.9219 5.15738 23.875 5.39706 24.7695C5.63675 25.664 6.22197 26.4267 7.02398 26.8898C7.82599 27.3528 8.77909 27.4783 9.67361 27.2386C10.5681 26.9989 11.3308 26.4137 11.7938 25.6117L10.2819 24.7387C10.0503 25.1397 9.669 25.4323 9.22174 25.5522C8.77448 25.672 8.29793 25.6093 7.89692 25.3778C7.49592 25.1462 7.20331 24.7649 7.08347 24.3176C6.96362 23.8704 7.02636 23.3938 7.25788 22.9928L5.74589 22.1199Z" fill="black"/>
<mask id="path-11-outside-1_13_2" maskUnits="userSpaceOnUse" x="9.30603" y="14.7578" width="8.19615" height="8.19615" fill="black">
<rect fill="white" x="9.30603" y="14.7578" width="8.19615" height="8.19615"/>
<path d="M11.098 19.8338C11.4951 20.0631 11.9335 20.2119 12.3881 20.2717C12.8427 20.3316 13.3047 20.3013 13.7476 20.1826C14.1905 20.0639 14.6057 19.8592 14.9695 19.58C15.3333 19.3009 15.6385 18.9528 15.8678 18.5557L14.3558 17.6828C14.2412 17.8813 14.0886 18.0553 13.9067 18.1949C13.7248 18.3345 13.5172 18.4369 13.2957 18.4962C13.0743 18.5556 12.8433 18.5707 12.616 18.5408C12.3886 18.5108 12.1695 18.4364 11.9709 18.3218L11.098 19.8338Z"/>
</mask>
<path d="M11.098 19.8338C11.4951 20.0631 11.9335 20.2119 12.3881 20.2717C12.8427 20.3316 13.3047 20.3013 13.7476 20.1826C14.1905 20.0639 14.6057 19.8592 14.9695 19.58C15.3333 19.3009 15.6385 18.9528 15.8678 18.5557L14.3558 17.6828C14.2412 17.8813 14.0886 18.0553 13.9067 18.1949C13.7248 18.3345 13.5172 18.4369 13.2957 18.4962C13.0743 18.5556 12.8433 18.5707 12.616 18.5408C12.3886 18.5108 12.1695 18.4364 11.9709 18.3218L11.098 19.8338Z" fill="black"/>
<path d="M11.098 19.8338C11.4951 20.0631 11.9335 20.2119 12.3881 20.2717C12.8427 20.3316 13.3047 20.3013 13.7476 20.1826C14.1905 20.0639 14.6057 19.8592 14.9695 19.58C15.3333 19.3009 15.6385 18.9528 15.8678 18.5557L14.3558 17.6828C14.2412 17.8813 14.0886 18.0553 13.9067 18.1949C13.7248 18.3345 13.5172 18.4369 13.2957 18.4962C13.0743 18.5556 12.8433 18.5707 12.616 18.5408C12.3886 18.5108 12.1695 18.4364 11.9709 18.3218L11.098 19.8338Z" stroke="white" stroke-width="1.16393" mask="url(#path-11-outside-1_13_2)"/>
<mask id="path-12-inside-2_13_2" fill="white">
<path d="M18.7775 13.5157C19.2406 12.7137 19.3661 11.7606 19.1264 10.8661C18.8867 9.97158 18.3015 9.20891 17.4995 8.74587C16.6975 8.28283 15.7443 8.15735 14.8498 8.39703C13.9553 8.63672 13.1926 9.22194 12.7296 10.0239L14.2416 10.8969C14.4731 10.4959 14.8544 10.2033 15.3017 10.0834C15.749 9.9636 16.2255 10.0263 16.6265 10.2579C17.0275 10.4894 17.3201 10.8707 17.44 11.318C17.5598 11.7652 17.4971 12.2418 17.2656 12.6428L18.7775 13.5157Z"/>
</mask>
<path d="M18.7775 13.5157C19.2406 12.7137 19.3661 11.7606 19.1264 10.8661C18.8867 9.97158 18.3015 9.20891 17.4995 8.74587C16.6975 8.28283 15.7443 8.15735 14.8498 8.39703C13.9553 8.63672 13.1926 9.22194 12.7296 10.0239L14.2416 10.8969C14.4731 10.4959 14.8544 10.2033 15.3017 10.0834C15.749 9.9636 16.2255 10.0263 16.6265 10.2579C17.0275 10.4894 17.3201 10.8707 17.44 11.318C17.5598 11.7652 17.4971 12.2418 17.2656 12.6428L18.7775 13.5157Z" fill="black" stroke="black" stroke-width="1.16393" mask="url(#path-12-inside-2_13_2)"/>
<mask id="path-13-outside-3_13_2" maskUnits="userSpaceOnUse" x="13.4897" y="11.9866" width="6.4641" height="7.19615" fill="black">
<rect fill="white" x="13.4897" y="11.9866" width="6.4641" height="7.19615"/>
<path d="M14.3557 17.6828L17.2655 12.6428L18.7775 13.5158L15.8677 18.5557L14.3557 17.6828Z"/>
</mask>
<path d="M14.3557 17.6828L17.2655 12.6428L18.7775 13.5158L15.8677 18.5557L14.3557 17.6828Z" fill="black"/>
<path d="M14.8597 17.9738L17.7695 12.9338L16.7615 12.3519L13.8517 17.3918L14.8597 17.9738ZM18.2735 13.2248L15.3637 18.2648L16.3717 18.8467L19.2815 13.8068L18.2735 13.2248Z" fill="white" mask="url(#path-13-outside-3_13_2)"/>
<mask id="path-15-outside-4_13_2" maskUnits="userSpaceOnUse" x="8.9538" y="9.36781" width="6.4641" height="7.19615" fill="black">
<rect fill="white" x="8.9538" y="9.36781" width="6.4641" height="7.19615"/>
<path d="M9.81982 15.064L12.7296 10.024L14.2416 10.8969L11.3318 15.9369L9.81982 15.064Z"/>
</mask>
<path d="M9.81982 15.064L12.7296 10.024L14.2416 10.8969L11.3318 15.9369L9.81982 15.064Z" fill="black"/>
<path d="M10.3238 15.3549L13.2336 10.315L12.2257 9.73302L9.31583 14.773L10.3238 15.3549ZM13.7376 10.606L10.8278 15.6459L11.8358 16.2279L14.7456 11.1879L13.7376 10.606Z" fill="white" mask="url(#path-15-outside-4_13_2)"/>
<path d="M10.0733 18.9354C10.3417 19.3973 10.7005 19.6045 11.0977 19.8338C11.4948 20.0631 11.9331 20.2119 12.3878 20.2717C12.8424 20.3316 13.3044 20.3013 13.7473 20.1826C14.1902 20.064 14.6054 19.8592 14.9692 19.5801L13.9064 18.1949C13.7245 18.3345 13.5169 18.4369 13.2954 18.4962C13.074 18.5556 12.843 18.5707 12.6157 18.5408C12.3884 18.5108 12.1692 18.4364 11.9706 18.3218C11.7721 18.2072 11.598 18.0545 11.4585 17.8726L10.0733 18.9354Z" fill="black"/>
<path d="M9.73123 18.7088L8.21924 17.8359" stroke="black" stroke-width="0.581965"/>
<mask id="path-19-outside-5_13_2" maskUnits="userSpaceOnUse" x="7.04389" y="12.6757" width="9.06218" height="8.69615" fill="black">
<rect fill="white" x="7.04389" y="12.6757" width="9.06218" height="8.69615"/>
<path d="M8.65581 17.0799C8.93906 16.5893 9.33744 16.175 9.81656 15.8727C10.2957 15.5704 10.8412 15.3892 11.4059 15.3448C11.9707 15.3003 12.5378 15.394 13.0583 15.6176C13.5788 15.8413 14.0371 16.1882 14.3936 16.6285L13.0367 17.7272C12.8584 17.507 12.6293 17.3335 12.369 17.2217C12.1088 17.1099 11.8252 17.0631 11.5429 17.0853C11.2605 17.1075 10.9877 17.1981 10.7482 17.3492C10.5086 17.5004 10.3094 17.7075 10.1678 17.9529L8.65581 17.0799Z"/>
</mask>
<path d="M8.65581 17.0799C8.93906 16.5893 9.33744 16.175 9.81656 15.8727C10.2957 15.5704 10.8412 15.3892 11.4059 15.3448C11.9707 15.3003 12.5378 15.394 13.0583 15.6176C13.5788 15.8413 14.0371 16.1882 14.3936 16.6285L13.0367 17.7272C12.8584 17.507 12.6293 17.3335 12.369 17.2217C12.1088 17.1099 11.8252 17.0631 11.5429 17.0853C11.2605 17.1075 10.9877 17.1981 10.7482 17.3492C10.5086 17.5004 10.3094 17.7075 10.1678 17.9529L8.65581 17.0799Z" fill="#050505"/>
<path d="M8.65581 17.0799C8.93906 16.5893 9.33744 16.175 9.81656 15.8727C10.2957 15.5704 10.8412 15.3892 11.4059 15.3448C11.9707 15.3003 12.5378 15.394 13.0583 15.6176C13.5788 15.8413 14.0371 16.1882 14.3936 16.6285L13.0367 17.7272C12.8584 17.507 12.6293 17.3335 12.369 17.2217C12.1088 17.1099 11.8252 17.0631 11.5429 17.0853C11.2605 17.1075 10.9877 17.1981 10.7482 17.3492C10.5086 17.5004 10.3094 17.7075 10.1678 17.9529L8.65581 17.0799Z" stroke="white" stroke-width="1.16393" stroke-linejoin="round" mask="url(#path-19-outside-5_13_2)"/>
<rect x="5.74609" y="22.1199" width="5.81965" height="1.74589" transform="rotate(-60 5.74609 22.1199)" fill="black"/>
<path d="M14.7677 17.0817C14.7866 17.0489 14.8055 17.0162 14.8244 16.9835C14.8336 16.9676 14.8416 16.9463 14.854 16.9328C14.8655 16.9203 14.8763 16.8974 14.8909 16.8886C14.9053 16.88 14.9155 16.8501 14.924 16.8353C14.9338 16.8183 14.9437 16.8013 14.9535 16.7843C14.9729 16.7507 14.9891 16.7144 15.0075 16.6825" stroke="black" stroke-width="0.0581965" stroke-linecap="round"/>
<path d="M14.7014 17.1882L14.8472 16.9358" stroke="black" stroke-width="0.0581965" stroke-linecap="round"/>
<path d="M14.6909 17.1822L14.8488 16.9087" stroke="black" stroke-width="0.0581965" stroke-linecap="round"/>
<path d="M14.6992 17.1682L14.9948 16.6563" stroke="black" stroke-width="0.0581965" stroke-linecap="round"/>
<path d="M14.6895 17.1767L15.0073 16.6262" stroke="black" stroke-width="0.0581965" stroke-linecap="round"/>
<path d="M14.7002 17.1501L15.0221 16.5926" stroke="black" stroke-width="0.0581965" stroke-linecap="round"/>
<path d="M14.7031 17.1611L15.0392 16.5791" stroke="black" stroke-width="0.0581965" stroke-linecap="round"/>
<path d="M14.6475 17.2413L15.0159 16.6032" stroke="black" stroke-width="0.0581965" stroke-linecap="round"/>
<path d="M14.697 17.1718L14.7456 17.0876" stroke="black" stroke-width="0.0581965" stroke-linecap="round"/>
<path d="M14 26.0716L19.2295 32.0383H8.83716L14 26.0716Z" fill="black"/>
</svg>
